<?xml version="1.0" encoding="UTF-8"?>
<svg version="1.1" xmlns="http://www.w3.org/2000/svg" width="165" height="186">
<path d="M0 0 C54.45 0 108.9 0 165 0 C165 61.38 165 122.76 165 186 C110.55 186 56.1 186 0 186 C0 124.62 0 63.24 0 0 Z M5.36448383 6.09636402 C3.30832333 8.96498072 3.62220621 11.33117405 3.61904907 14.83239746 C3.6143691 15.53113149 3.60968913 16.22986552 3.60486734 16.94977331 C3.5928781 19.29678536 3.60238951 21.64321774 3.61181641 23.99023438 C3.60775243 25.67052044 3.60241154 27.35080384 3.59588623 29.03108215 C3.58218601 33.59920846 3.5875224 38.16713197 3.59702349 42.73526192 C3.6046061 47.51048463 3.59757837 52.28568971 3.59286499 57.06091309 C3.58740335 65.08084234 3.59460975 73.10068878 3.60888672 81.12060547 C3.62521402 90.39956407 3.6199258 99.67832493 3.6034075 108.95727873 C3.58980425 116.91657313 3.58786728 124.87580792 3.59572351 132.83511019 C3.60040643 137.59210738 3.60100794 142.34901155 3.59111404 147.10600281 C3.58246352 151.57773303 3.5884311 156.04920772 3.60579681 160.52091026 C3.60977193 162.16445681 3.60861016 163.80802478 3.60200882 165.45156288 C3.59384336 167.69053551 3.60405326 169.92868288 3.61904907 172.16760254 C3.62018015 173.42195351 3.62131123 174.67630447 3.62247658 175.96866608 C3.7512196 178.9740925 3.7512196 178.9740925 5.36727715 180.90321541 C7.76573929 182.51438678 9.65438402 182.38130974 12.52539062 182.38818359 C14.22230042 182.40236832 14.22230042 182.40236832 15.95349121 182.4168396 C17.17540161 182.41076691 18.39731201 182.40469421 19.65625 182.3984375 C21.53697205 182.40274277 21.53697205 182.40274277 23.45568848 182.40713501 C26.1089575 182.40917827 28.76139971 182.40513468 31.41455078 182.39111328 C34.81441634 182.37402086 38.21357146 182.38386317 41.61341095 182.40183067 C44.85688278 182.41528089 48.1002689 182.40586234 51.34375 182.3984375 C53.1766156 182.40754654 53.1766156 182.40754654 55.04650879 182.4168396 C56.17778198 182.40738312 57.30905518 182.39792664 58.47460938 182.38818359 C59.96994202 182.38460342 59.96994202 182.38460342 61.4954834 182.38095093 C64.02720407 182.18506684 64.02720407 182.18506684 65.85705566 180.70230103 C67.35487971 178.83901109 67.35487971 178.83901109 66.8125 175.375 C66.544375 174.26125 66.27625 173.1475 66 172 C63.56032503 170.78016252 62.00095476 170.87948473 59.27490234 170.88647461 C58.29403656 170.88655014 57.31317078 170.88662567 56.30258179 170.88670349 C55.24108917 170.89186478 54.17959656 170.89702606 53.0859375 170.90234375 C52.00116119 170.9037587 50.91638489 170.90517365 49.79873657 170.90663147 C46.32413 170.91224198 42.84958719 170.92479628 39.375 170.9375 C37.02343843 170.94251365 34.67187585 170.94707679 32.3203125 170.95117188 C26.54685032 170.96221483 20.77343598 170.97948653 15 171 C15 166.05 15 161.1 15 156 C17.31 156 19.62 156 22 156 C22.66 154.35 23.32 152.7 24 151 C22.31377147 148.89584109 22.31377147 148.89584109 20 147 C18.35 147 16.7 147 15 147 C15 140.4 15 133.8 15 127 C26.88 127 38.76 127 51 127 C51 128.65 51 130.3 51 132 C52.85544166 134.21760918 52.85544166 134.21760918 55.625 134.5625 C60.75730888 133.70711519 63.6471033 130.85999394 67 127 C69.21754786 123.70272652 69.21754786 123.70272652 69 120 C67.0367641 116.93031613 64.63489159 114.49907244 62 112 C61.50242188 111.42121094 61.00484375 110.84242187 60.4921875 110.24609375 C58.84943112 108.57729522 58.84943112 108.57729522 55.3125 109.3125 C54.219375 109.539375 53.12625 109.76625 52 110 C51.67 111.98 51.34 113.96 51 116 C39.12 116 27.24 116 15 116 C15 101.15 15 86.3 15 71 C26.88 71 38.76 71 51 71 C51.33 72.65 51.66 74.3 52 76 C54.73650456 78.25911331 54.73650456 78.25911331 57.421875 77.859375 C60.48784505 76.83738498 61.98999858 75.54450526 64.25 73.25 C64.93578125 72.57453125 65.6215625 71.8990625 66.328125 71.203125 C68.21231835 68.72021601 68.74229753 67.08737667 69 64 C67.11112083 59.66668896 63.73903547 55.88883914 60 53 C56.97352531 51.881902 56.3193045 51.86211851 53.25 53.1875 C52.5075 53.785625 51.765 54.38375 51 55 C51 56.32 51 57.64 51 59 C39.12 59 27.24 59 15 59 C15 52.4 15 45.8 15 39 C17.31 39 19.62 39 22 39 C22.66 37.35 23.32 35.7 24 34 C22.31377147 31.89584109 22.31377147 31.89584109 20 30 C18.35 30 16.7 30 15 30 C15 25.38 15 20.76 15 16 C16.46864502 16.01571045 17.93729004 16.0314209 19.45043945 16.04760742 C24.89032524 16.1018368 30.33018706 16.13632477 35.77026367 16.16479492 C38.12642431 16.17989747 40.48255677 16.20038091 42.83862305 16.22631836 C46.22191312 16.26263656 49.60483208 16.27971167 52.98828125 16.29296875 C54.04461258 16.30845261 55.10094391 16.32393646 56.18928528 16.33988953 C57.17007553 16.34011612 58.15086578 16.34034271 59.16137695 16.34057617 C60.02519485 16.34723801 60.88901276 16.35389984 61.77900696 16.36076355 C64.50514348 15.9179478 65.38686201 15.21353717 67 13 C67.4167552 9.95788569 67.4167552 9.95788569 67 7 C64.3646046 4.3646046 63.1730381 4.74200069 59.49633789 4.7253418 C57.76928368 4.71104378 57.76928368 4.71104378 56.00733948 4.69645691 C54.75839401 4.69736832 53.50944855 4.69827972 52.22265625 4.69921875 C50.94523056 4.69493362 49.66780487 4.6906485 48.35166931 4.68623352 C45.64552122 4.68048088 42.93975338 4.67906559 40.23364258 4.68432617 C36.76540507 4.69011961 33.29770181 4.67319592 29.82955265 4.6499815 C26.52309099 4.63170757 23.21665935 4.63542938 19.91015625 4.63671875 C18.0397744 4.62290413 18.0397744 4.62290413 16.13160706 4.60881042 C14.97708542 4.61503922 13.82256378 4.62126801 12.63305664 4.62768555 C11.10655235 4.62674141 11.10655235 4.62674141 9.54920959 4.6257782 C7.03200804 4.80855502 7.03200804 4.80855502 5.36448383 6.09636402 Z M100.18200684 6.36801147 C98.80976971 8.01176401 98.80976971 8.01176401 98.5625 10.5 C98.76136337 13.09890511 98.76136337 13.09890511 100.72357178 14.63496399 C103.36486868 16.21878963 104.80414139 16.36470415 107.86035156 16.34057617 C108.82104553 16.34034958 109.7817395 16.34012299 110.77154541 16.33988953 C111.80084167 16.32440567 112.83013794 16.30892181 113.890625 16.29296875 C114.95037537 16.28872391 116.01012573 16.28447906 117.10198975 16.28010559 C120.48491887 16.2633203 123.86725109 16.22566755 127.25 16.1875 C129.54426223 16.17245301 131.8385338 16.15876463 134.1328125 16.14648438 C139.75543813 16.11341712 145.37761788 16.06163506 151 16 C151 20.62 151 25.24 151 30 C148.69 30 146.38 30 144 30 C141.55901182 31.85420839 141.55901182 31.85420839 140 34 C140.66 35.65 141.32 37.3 142 39 C144.97 39 147.94 39 151 39 C151 45.6 151 52.2 151 59 C139.12 59 127.24 59 115 59 C114.505 56.525 114.505 56.525 114 54 C111.80581563 52.32221688 111.80581563 52.32221688 109 52 C104.27925274 53.81567202 100.8036654 57.87435314 98 62 C97.03240894 64.75271896 96.82087966 65.55816984 97.9375 68.3125 C100.78633895 72.02462348 103.94193092 75.60677977 108 78 C111.37670723 77.76954224 112.58514371 77.41485629 115 75 C115 73.68 115 72.36 115 71 C126.88 71 138.76 71 151 71 C151 85.85 151 100.7 151 116 C139.12 116 127.24 116 115 116 C115 114.35 115 112.7 115 111 C111.72990963 108.81993976 110.79318283 108.45001684 107 109 C102.33444116 112.27108338 98.55229828 116.03243739 97 121.5625 C98.42371038 126.45650444 101.30082579 129.56863931 105 133 C107.86120256 134.43060128 109.84010585 134.38692581 113 134 C115.21690455 131.30790559 115.21690455 131.30790559 116 128 C133.325 127.505 133.325 127.505 151 127 C151 133.6 151 140.2 151 147 C148.69 147 146.38 147 144 147 C141.55901182 148.85420839 141.55901182 148.85420839 140 151 C140.66 152.65 141.32 154.3 142 156 C144.97 156 147.94 156 151 156 C151 160.95 151 165.9 151 171 C149.53135498 170.98428955 148.06270996 170.9685791 146.54956055 170.95239258 C141.10967476 170.8981632 135.66981294 170.86367523 130.22973633 170.83520508 C127.87357569 170.82010253 125.51744323 170.79961909 123.16137695 170.77368164 C119.77808688 170.73736344 116.39516792 170.72028833 113.01171875 170.70703125 C111.95538742 170.69154739 110.89905609 170.67606354 109.81071472 170.66011047 C108.82992447 170.65988388 107.84913422 170.65965729 106.83862305 170.65942383 C105.97480515 170.65276199 105.11098724 170.64610016 104.22099304 170.63923645 C101.50623806 171.08020345 100.62913139 171.81857513 99 174 C98.57848904 176.81007309 98.49296967 178.29762562 100.17810059 180.63198853 C102.69225791 182.5197964 104.39823685 182.38069647 107.52539062 182.38818359 C109.22230042 182.40236832 109.22230042 182.40236832 110.95349121 182.4168396 C112.17540161 182.41076691 113.39731201 182.40469421 114.65625 182.3984375 C116.53697205 182.40274277 116.53697205 182.40274277 118.45568848 182.40713501 C121.1089575 182.40917827 123.76139971 182.40513468 126.41455078 182.39111328 C129.81441634 182.37402086 133.21357146 182.38386317 136.61341095 182.40183067 C139.85688278 182.41528089 143.1002689 182.40586234 146.34375 182.3984375 C148.1766156 182.40754654 148.1766156 182.40754654 150.04650879 182.4168396 C151.17778198 182.40738312 152.30905518 182.39792664 153.47460938 182.38818359 C154.96994202 182.38460342 154.96994202 182.38460342 156.4954834 182.38095093 C158.97360608 182.18614236 158.97360608 182.18614236 160.63272285 180.90321541 C162.69296476 178.03541047 162.37779239 175.67038603 162.38095093 172.16760254 C162.3856309 171.46886851 162.39031087 170.77013448 162.39513266 170.05022669 C162.4071219 167.70321464 162.39761049 165.35678226 162.38818359 163.00976562 C162.39224757 161.32947956 162.39758846 159.64919616 162.40411377 157.96891785 C162.41781399 153.40079154 162.4124776 148.83286803 162.40297651 144.26473808 C162.3953939 139.48951537 162.40242163 134.71431029 162.40713501 129.93908691 C162.41259665 121.91915766 162.40539025 113.89931122 162.39111328 105.87939453 C162.37478598 96.60043593 162.3800742 87.32167507 162.3965925 78.04272127 C162.41019575 70.08342687 162.41213272 62.12419208 162.40427649 54.16488981 C162.39959357 49.40789262 162.39899206 44.65098845 162.40888596 39.89399719 C162.41753648 35.42226697 162.4115689 30.95079228 162.39420319 26.47908974 C162.39022807 24.83554319 162.39138984 23.19197522 162.39799118 21.54843712 C162.40615664 19.30946449 162.39594674 17.07131712 162.38095093 14.83239746 C162.37981985 13.57804649 162.37868877 12.32369553 162.37752342 11.03133392 C162.2487804 8.0259075 162.2487804 8.0259075 160.63272285 6.09678459 C158.23426071 4.48561322 156.34561598 4.61869026 153.47460938 4.61181641 C152.34333618 4.60235992 151.21206299 4.59290344 150.04650879 4.5831604 C148.21364319 4.59226944 148.21364319 4.59226944 146.34375 4.6015625 C144.46302795 4.59725723 144.46302795 4.59725723 142.54431152 4.59286499 C139.8910425 4.59082173 137.23860029 4.59486532 134.58544922 4.60888672 C131.18558366 4.62597914 127.78642854 4.61613683 124.38658905 4.59816933 C121.14311722 4.58471911 117.8997311 4.59413766 114.65625 4.6015625 C113.4343396 4.59548981 112.2124292 4.58941711 110.95349121 4.5831604 C109.25658142 4.59734512 109.25658142 4.59734512 107.52539062 4.61181641 C106.03005798 4.61539658 106.03005798 4.61539658 104.5045166 4.61904907 C101.96248492 4.80315423 101.96248492 4.80315423 100.18200684 6.36801147 Z M80 6 C77.83073341 9.25389988 77.75919951 10.13395957 77.8046875 13.88671875 C77.81435547 15.2934082 77.81435547 15.2934082 77.82421875 16.72851562 C77.84097656 17.70498047 77.85773438 18.68144531 77.875 19.6875 C77.88402344 20.67556641 77.89304688 21.66363281 77.90234375 22.68164062 C77.9259157 25.12133765 77.95881978 27.56054697 78 30 C76.89487061 29.98952637 75.78974121 29.97905273 74.65112305 29.96826172 C70.55301144 29.93207593 66.45491397 29.90910471 62.35668945 29.89013672 C60.58257676 29.88007589 58.80848065 29.86642578 57.03442383 29.84912109 C54.48514716 29.82487622 51.93608963 29.81351782 49.38671875 29.8046875 C48.59287277 29.79436493 47.79902679 29.78404236 46.98112488 29.77340698 C43.11776957 29.7726189 41.29160554 29.80559631 38 32 C37.41649495 34.45709375 37.41649495 34.45709375 38 37 C40.51557177 39.73387526 42.01455958 40.00131921 45.75878906 40.34057617 C47.26115134 40.33983046 48.76357136 40.32342875 50.265625 40.29296875 C50.96929199 40.28994751 51.67295898 40.28692627 52.39794922 40.28381348 C55.01544962 40.26816936 57.63274021 40.22628524 60.25 40.1875 C66.1075 40.125625 71.965 40.06375 78 40 C78 56.17 78 72.34 78 89 C53.625 88.8125 53.625 88.8125 45.92822266 88.72973633 C43.92350745 88.72097763 41.91878694 88.71333224 39.9140625 88.70703125 C38.86629639 88.69168335 37.81853027 88.67633545 36.73901367 88.66052246 C35.74442139 88.66015991 34.7498291 88.65979736 33.72509766 88.65942383 C32.85905914 88.65276199 31.99302063 88.64610016 31.10073853 88.63923645 C30.40749481 88.75828842 29.7142511 88.87734039 29 89 C26.69924738 91.76745084 26.69924738 91.76745084 27.25 94.625 C27.4975 95.40875 27.745 96.1925 28 97 C30.41774581 98.20887291 31.93331064 98.12059343 34.63330078 98.11352539 C35.60759033 98.11340454 36.58187988 98.11328369 37.58569336 98.11315918 C39.12495483 98.10548523 39.12495483 98.10548523 40.6953125 98.09765625 C41.63689209 98.09664917 42.57847168 98.09564209 43.54858398 98.09460449 C47.07406834 98.08936287 50.59953536 98.07540166 54.125 98.0625 C62.00375 98.041875 69.8825 98.02125 78 98 C78 114.17 78 130.34 78 147 C59.6875 146.8125 59.6875 146.8125 53.91674805 146.72973633 C52.40674474 146.72097422 50.89673435 146.71332963 49.38671875 146.70703125 C48.60317017 146.69168335 47.81962158 146.67633545 47.0123291 146.66052246 C42.76214427 146.62992323 42.76214427 146.62992323 38.96411133 148.32299805 C37.72063701 150.13052612 37.72063701 150.13052612 38.1875 153.125 C38.455625 154.07375 38.72375 155.0225 39 156 C42.22603545 157.61301773 45.74710038 157.12053599 49.2890625 157.09765625 C50.10748627 157.0962413 50.92591003 157.09482635 51.76913452 157.09336853 C54.38779325 157.0877629 57.00636704 157.07520948 59.625 157.0625 C61.39843627 157.05748572 63.17187387 157.05292269 64.9453125 157.04882812 C69.29690782 157.03779164 73.6484395 157.02052325 78 157 C77.98952637 157.68102783 77.97905273 158.36205566 77.96826172 159.0637207 C77.92671122 162.14660966 77.90067689 165.22943971 77.875 168.3125 C77.85824219 169.38435547 77.84148437 170.45621094 77.82421875 171.56054688 C77.81777344 172.58857422 77.81132813 173.61660156 77.8046875 174.67578125 C77.79421387 175.62364502 77.78374023 176.57150879 77.77294922 177.5480957 C77.82776125 180.25689249 77.82776125 180.25689249 80 183 C83 183.5 83 183.5 86 183 C88.23413013 179.64880481 88.23847762 178.5822245 88.1953125 174.67578125 C88.18564453 173.13374023 88.18564453 173.13374023 88.17578125 171.56054688 C88.15902344 170.48869141 88.14226562 169.41683594 88.125 168.3125 C88.11597656 167.22904297 88.10695312 166.14558594 88.09765625 165.02929688 C88.0740734 162.3526429 88.04116126 159.67643203 88 157 C89.04454346 157.01571045 90.08908691 157.0314209 91.1652832 157.04760742 C95.03971652 157.10189697 98.91411619 157.1363463 102.78881836 157.16479492 C104.4659592 157.17988384 106.14306057 157.20035748 107.82006836 157.22631836 C110.23040504 157.26269811 112.64022019 157.27972486 115.05078125 157.29296875 C116.17592888 157.31619453 116.17592888 157.31619453 117.32380676 157.33988953 C121.39173092 157.34797257 121.39173092 157.34797257 125.00854492 155.67700195 C126.28498542 153.87496305 126.28498542 153.87496305 125.8125 150.875 C125.544375 149.92625 125.27625 148.9775 125 148 C121.88019145 146.44009573 118.57076779 146.87885753 115.1484375 146.90234375 C114.11940308 146.90385437 114.11940308 146.90385437 113.06958008 146.90539551 C110.50470307 146.91063111 107.93984987 146.92459237 105.375 146.9375 C96.774375 146.9684375 96.774375 146.9684375 88 147 C88 130.83 88 114.66 88 98 C112.375 98.1875 112.375 98.1875 120.07177734 98.27026367 C122.07649255 98.27902237 124.08121306 98.28666776 126.0859375 98.29296875 C127.13370361 98.30831665 128.18146973 98.32366455 129.26098633 98.33947754 C130.25557861 98.33984009 131.2501709 98.34020264 132.27490234 98.34057617 C133.14094086 98.34723801 134.00697937 98.35389984 134.89926147 98.36076355 C135.59250519 98.24171158 136.2857489 98.12265961 137 98 C139.31543207 95.23011924 139.31543207 95.23011924 138.6875 92.375 C138.2258486 90.06498035 138.2258486 90.06498035 137 89 C135.4651703 88.90680551 133.92607918 88.882542 132.38842773 88.88647461 C131.3937146 88.88659546 130.39900146 88.88671631 129.37414551 88.88684082 C128.32126343 88.89195679 127.26838135 88.89707275 126.18359375 88.90234375 C124.74022644 88.90385437 124.74022644 88.90385437 123.2677002 88.90539551 C119.65762142 88.9106454 116.04755957 88.92460652 112.4375 88.9375 C104.373125 88.958125 96.30875 88.97875 88 89 C88 72.83 88 56.66 88 40 C104.75 40.1875 104.75 40.1875 110.01855469 40.27026367 C111.40298773 40.27902891 112.78742852 40.28667276 114.171875 40.29296875 C114.88553223 40.30831665 115.59918945 40.32366455 116.33447266 40.33947754 C119.4933447 40.34113777 121.67011594 40.18198582 124.46191406 38.6418457 C126.23310511 37.05341816 126.23310511 37.05341816 126.4375 34.4375 C126.2209375 33.2309375 126.2209375 33.2309375 126 32 C122.25995683 29.50663789 119.37438391 29.74518772 115.05078125 29.8046875 C114.27816452 29.8075174 113.50554779 29.81034729 112.70951843 29.81326294 C110.24368757 29.82445122 107.77822094 29.84955297 105.3125 29.875 C103.63997921 29.88503157 101.96745272 29.89415711 100.29492188 29.90234375 C96.19647441 29.92438608 92.09829894 29.95890637 88 30 C88.01047363 29.37955811 88.02094727 28.75911621 88.03173828 28.11987305 C88.07330886 25.30912323 88.09932933 22.4984381 88.125 19.6875 C88.14175781 18.71103516 88.15851563 17.73457031 88.17578125 16.72851562 C88.18222656 15.79072266 88.18867187 14.85292969 88.1953125 13.88671875 C88.20578613 13.02264404 88.21625977 12.15856934 88.22705078 11.26831055 C88.15090168 8.71819279 88.15090168 8.71819279 86 6 C83 5.5 83 5.5 80 6 Z " fill="#000000" transform="translate(0,0)"/>
</svg>
